<svg width="77" height="79" viewBox="0 0 77 79" fill="none" xmlns="http://www.w3.org/2000/svg">
<path d="M1 33L27.9027 46.2486V62L1 33Z" fill="#1C597B"/>
<path d="M77 0L27.9027 62L27.9026 45.9135L77 0Z" fill="#EDBECE"/>
<path d="M9.5752 31.95C14.3847 27.0439 21.0869 24 28.5 24C33.3183 24 37.8363 25.2859 41.7294 27.5333M52.795 39.9C54.2132 43.1461 55 46.7311 55 50.5C55 65.1355 43.1355 77 28.5 77C13.8645 77 2 65.1355 2 50.5C2 47.602 2.4652 44.8126 3.325 42.2024" stroke="#EDBECE" stroke-width="3" stroke-linejoin="round"/>
<path d="M9.5752 31.95C14.3847 27.0439 21.0869 24 28.5 24C33.3183 24 37.8363 25.2859 41.7294 27.5333" stroke="#1C597B" stroke-width="3" stroke-linejoin="round"/>
</svg>
